Nobile-Bold.ufo
<glyph name="quotedbl" format="1">
  <advance width="1213"/>
  <unicode hex="0022"/>
  <outline>
    <contour>
      <point x="270" y="804" type="line"/>
      <point x="440" y="804" type="line"/>
      <point x="454.515976479" y="906.137975233"/>
      <point x="527.016375826" y="1401.56875254"/>
      <point x="545.676612364" y="1541.26436317" type="curve" smooth="yes"/>
      <point x="548.792686046" y="1564.59213905"/>
      <point x="550.407390494" y="1578.0"/>
      <point x="550" y="1578" type="curve" smooth="yes"/>
      <point x="186" y="1578" type="line"/>
      <point x="190.653409034" y="1535.12215962" type="line"/>
    </contour>
    <contour>
      <point x="742" y="804" type="line"/>
      <point x="922" y="804" type="line"/>
      <point x="936.80117205" y="908.144681308"/>
      <point x="1011.88988088" y="1421.1880349"/>
      <point x="1028.71413777" y="1549.08054011" type="curve" smooth="yes"/>
      <point x="1031.14530949" y="1567.56151336"/>
      <point x="1032.35983823" y="1578.0"/>
      <point x="1032" y="1578" type="curve" smooth="yes"/>
      <point x="668" y="1578" type="line"/>
      <point x="670.888236031" y="1547.79061233" type="line"/>
    </contour>
  </outline>
</glyph>
<glyph name="percent" format="1">
  <advance width="2181"/>
  <unicode hex="0025"/>
  <outline>
    <contour>
      <point x="551" y="917" type="curve" smooth="yes"/>
      <point x="463" y="917"/>
      <point x="395" y="961"/>
      <point x="395" y="1150" type="curve" smooth="yes"/>
      <point x="395" y="1315"/>
      <point x="450" y="1379"/>
      <point x="551" y="1379" type="curve" smooth="yes"/>
      <point x="646" y="1379"/>
      <point x="711" y="1331"/>
      <point x="711" y="1150" type="curve" smooth="yes"/>
      <point x="711" y="982"/>
      <point x="654" y="917"/>
    </contour>
    <contour>
      <point x="551" y="711" type="curve" smooth="yes"/>
      <point x="880" y="711"/>
      <point x="954" y="972"/>
      <point x="954" y="1152" type="curve" smooth="yes"/>
      <point x="954" y="1339"/>
      <point x="870" y="1579"/>
      <point x="543" y="1579" type="curve" smooth="yes"/>
      <point x="385" y="1579"/>
      <point x="164" y="1517"/>
      <point x="164" y="1130" type="curve" smooth="yes"/>
      <point x="164" y="974"/>
      <point x="239" y="711"/>
    </contour>
    <contour>
      <point x="779" y="-107" type="line"/>
      <point x="1554" y="1592" type="line"/>
      <point x="1327" y="1674" type="line"/>
      <point x="560" y="-29" type="line"/>
    </contour>
    <contour>
      <point x="1609" y="206" type="curve" smooth="yes"/>
      <point x="1522" y="206"/>
      <point x="1453" y="250"/>
      <point x="1453" y="439" type="curve" smooth="yes"/>
      <point x="1453" y="604"/>
      <point x="1509" y="668"/>
      <point x="1609" y="668" type="curve" smooth="yes"/>
      <point x="1706" y="668"/>
      <point x="1769" y="620"/>
      <point x="1769" y="439" type="curve" smooth="yes"/>
      <point x="1769" y="271"/>
      <point x="1712" y="206"/>
    </contour>
    <contour>
      <point x="1609" y="0" type="curve"/>
      <point x="1931" y="3"/>
      <point x="2012" y="250"/>
      <point x="2012" y="441" type="curve" smooth="yes"/>
      <point x="2012" y="633"/>
      <point x="1926" y="868"/>
      <point x="1601" y="868" type="curve" smooth="yes"/>
      <point x="1443" y="868"/>
      <point x="1222" y="806"/>
      <point x="1222" y="419" type="curve" smooth="yes"/>
      <point x="1222" y="263"/>
      <point x="1297" y="0"/>
    </contour>
  </outline>
</glyph>
<glyph name="parenleft" format="1">
  <advance width="828"/>
  <unicode hex="0028"/>
  <outline>
    <contour>
      <point x="588" y="-305" type="curve"/>
      <point x="747" y="-94" type="line"/>
      <point x="568" y="76"/>
      <point x="448" y="353"/>
      <point x="448" y="680" type="curve" smooth="yes"/>
      <point x="448" y="1009"/>
      <point x="569" y="1304"/>
      <point x="743" y="1468" type="curve"/>
      <point x="584" y="1679" type="line"/>
      <point x="322" y="1481"/>
      <point x="129" y="1123"/>
      <point x="129" y="680" type="curve" smooth="yes"/>
      <point x="129" y="240"/>
      <point x="325" y="-108"/>
    </contour>
  </outline>
</glyph>
<glyph name="greater" format="1">
  <advance width="1135"/>
  <unicode hex="003E"/>
  <outline>
    <contour>
      <point x="192" y="-37" type="line"/>
      <point x="1032" y="476" type="line"/>
      <point x="1032" y="712" type="line"/>
      <point x="191" y="1225" type="line"/>
      <point x="191" y="924" type="line"/>
      <point x="729" y="594" type="line"/>
      <point x="192" y="264" type="line"/>
    </contour>
  </outline>
</glyph>
<glyph name="at" format="1">
  <advance width="1959"/>
  <unicode hex="0040"/>
  <outline>
    <contour>
      <point x="970" y="-133" type="curve" smooth="yes"/>
      <point x="1110" y="-133"/>
      <point x="1245" y="-107"/>
      <point x="1329" y="-58" type="curve"/>
      <point x="1275" y="120" type="line"/>
      <point x="1183" y="83"/>
      <point x="1095" y="65"/>
      <point x="1011" y="65" type="curve" smooth="yes"/>
      <point x="581" y="65"/>
      <point x="338" y="277"/>
      <point x="338" y="642" type="curve" smooth="yes"/>
      <point x="338" y="1022"/>
      <point x="631" y="1347"/>
      <point x="1031" y="1347" type="curve" smooth="yes"/>
      <point x="1416" y="1347"/>
      <point x="1645" y="1112"/>
      <point x="1645" y="759" type="curve" smooth="yes"/>
      <point x="1645" y="627"/>
      <point x="1557" y="428"/>
      <point x="1438" y="428" type="curve" smooth="yes"/>
      <point x="1409" y="428"/>
      <point x="1380" y="440"/>
      <point x="1350" y="466" type="curve"/>
      <point x="1350" y="466"/>
      <point x="1433.0" y="947.0"/>
      <point x="1433" y="958" type="curve" smooth="yes"/>
      <point x="1433" y="1099"/>
      <point x="1236" y="1165"/>
      <point x="1048" y="1165" type="curve" smooth="yes"/>
      <point x="761" y="1165"/>
      <point x="531" y="959"/>
      <point x="531" y="659" type="curve" smooth="yes"/>
      <point x="531" y="391"/>
      <point x="742" y="257"/>
      <point x="903" y="257" type="curve" smooth="yes"/>
      <point x="1080" y="257"/>
      <point x="1154" y="343"/>
      <point x="1218" y="527" type="curve"/>
      <point x="1216" y="509"/>
      <point x="1215" y="492"/>
      <point x="1215" y="475" type="curve" smooth="yes"/>
      <point x="1215" y="348"/>
      <point x="1323" y="270"/>
      <point x="1445" y="270" type="curve" smooth="yes"/>
      <point x="1722" y="270"/>
      <point x="1853" y="476"/>
      <point x="1853" y="797" type="curve" smooth="yes"/>
      <point x="1853" y="1246"/>
      <point x="1526" y="1547"/>
      <point x="1056" y="1547" type="curve" smooth="yes"/>
      <point x="429" y="1547"/>
      <point x="97" y="1088"/>
      <point x="97" y="642" type="curve" smooth="yes"/>
      <point x="97" y="172"/>
      <point x="463" y="-133"/>
    </contour>
    <contour>
      <point x="911" y="423" type="curve"/>
      <point x="827" y="423"/>
      <point x="736" y="541"/>
      <point x="736" y="635" type="curve" smooth="yes"/>
      <point x="736" y="878"/>
      <point x="882" y="987"/>
      <point x="1053" y="987" type="curve" smooth="yes"/>
      <point x="1134" y="987"/>
      <point x="1229" y="971"/>
      <point x="1229" y="968" type="curve" smooth="yes"/>
      <point x="1229" y="968"/>
      <point x="1092.0" y="429.0"/>
    </contour>
  </outline>
</glyph>
<glyph name="B" format="1">
  <advance width="1479"/>
  <unicode hex="0042"/>
  <outline>
    <contour>
      <point x="167" y="0" type="line"/>
      <point x="705" y="0" type="line" smooth="yes"/>
      <point x="1028" y="0"/>
      <point x="1388" y="64"/>
      <point x="1388" y="461" type="curve" smooth="yes"/>
      <point x="1388" y="713"/>
      <point x="1213" y="799"/>
      <point x="989" y="832" type="curve"/>
      <point x="1166" y="850"/>
      <point x="1331" y="969"/>
      <point x="1331" y="1160" type="curve" smooth="yes"/>
      <point x="1331" y="1561"/>
      <point x="881" y="1578"/>
      <point x="585" y="1578" type="curve" smooth="yes"/>
      <point x="167" y="1578" type="line"/>
    </contour>
    <contour>
      <point x="536" y="254" type="line"/>
      <point x="536" y="703" type="line"/>
      <point x="673" y="703" type="line" smooth="yes"/>
      <point x="858" y="703"/>
      <point x="1024" y="690"/>
      <point x="1024" y="465" type="curve" smooth="yes"/>
      <point x="1024" y="238"/>
      <point x="820" y="254"/>
      <point x="655" y="254" type="curve" smooth="yes"/>
    </contour>
    <contour>
      <point x="536" y="928" type="line"/>
      <point x="536" y="1323" type="line"/>
      <point x="677" y="1323" type="line" smooth="yes"/>
      <point x="825" y="1323"/>
      <point x="1005" y="1327"/>
      <point x="1005" y="1135" type="curve" smooth="yes"/>
      <point x="1005" y="955"/>
      <point x="816" y="928"/>
      <point x="675" y="928" type="curve" smooth="yes"/>
    </contour>
  </outline>
</glyph>
<glyph name="C" format="1">
  <advance width="1327"/>
  <unicode hex="0043"/>
  <outline>
    <contour>
      <point x="837" y="-28" type="curve" smooth="yes"/>
      <point x="1058" y="-28"/>
      <point x="1208" y="26"/>
      <point x="1281" y="88" type="curve"/>
      <point x="1181" y="328" type="line"/>
      <point x="1075" y="255"/>
      <point x="1001" y="236"/>
      <point x="880" y="239" type="curve" smooth="yes"/>
      <point x="659" y="244"/>
      <point x="474" y="420"/>
      <point x="474" y="782" type="curve" smooth="yes"/>
      <point x="474" y="1169"/>
      <point x="663" y="1320"/>
      <point x="863" y="1334" type="curve" smooth="yes"/>
      <point x="977" y="1342"/>
      <point x="1056" y="1327"/>
      <point x="1181" y="1245" type="curve"/>
      <point x="1281" y="1487" type="line"/>
      <point x="1154" y="1574"/>
      <point x="1001" y="1607"/>
      <point x="847" y="1602" type="curve" smooth="yes"/>
      <point x="407" y="1588"/>
      <point x="102" y="1315"/>
      <point x="102" y="791" type="curve" smooth="yes"/>
      <point x="102" y="268"/>
      <point x="404" y="-28"/>
    </contour>
    <contour>
      <point x="656" y="1578" type="move" name="top"/>
    </contour>
    <contour>
      <point x="656" y="0" type="move" name="bottom"/>
    </contour>
  </outline>
</glyph>
<glyph name="D" format="1">
  <advance width="1567"/>
  <unicode hex="0044"/>
  <outline>
    <contour>
      <point x="536" y="254" type="line"/>
      <point x="536" y="1326" type="line"/>
      <point x="619" y="1326" type="line" smooth="yes"/>
      <point x="1018" y="1326"/>
      <point x="1096" y="1151"/>
      <point x="1096" y="785" type="curve" smooth="yes"/>
      <point x="1096" y="418"/>
      <point x="1006" y="254"/>
      <point x="619" y="254" type="curve" smooth="yes"/>
    </contour>
    <contour>
      <point x="167" y="0" type="line"/>
      <point x="658" y="0" type="line" smooth="yes"/>
      <point x="1180" y="0"/>
      <point x="1466" y="252"/>
      <point x="1466" y="782" type="curve" smooth="yes"/>
      <point x="1466" y="1318"/>
      <point x="1190" y="1578"/>
      <point x="658" y="1578" type="curve" smooth="yes"/>
      <point x="167" y="1578" type="line"/>
    </contour>
    <contour>
      <point x="792" y="1578" type="move" name="top"/>
    </contour>
    <contour>
      <point x="792" y="789" type="move" name="center"/>
    </contour>
  </outline>
</glyph>
<glyph name="F" format="1">
  <advance width="1236"/>
  <unicode hex="0046"/>
  <outline>
    <contour>
      <point x="167" y="0" type="line"/>
      <point x="535" y="0" type="line"/>
      <point x="535" y="655" type="line"/>
      <point x="1139" y="655" type="line"/>
      <point x="1139" y="881" type="line"/>
      <point x="535" y="881" type="line"/>
      <point x="535" y="1310" type="line"/>
      <point x="1225" y="1310" type="line"/>
      <point x="1225" y="1578" type="line"/>
      <point x="167" y="1578" type="line"/>
    </contour>
  </outline>
</glyph>
<glyph name="G" format="1">
  <advance width="1552"/>
  <unicode hex="0047"/>
  <outline>
    <contour>
      <point x="778" y="-28" type="curve" smooth="yes"/>
      <point x="946" y="-28"/>
      <point x="1091" y="55"/>
      <point x="1145" y="172" type="curve"/>
      <point x="1194" y="0" type="line"/>
      <point x="1412" y="0" type="line"/>
      <point x="1412" y="879" type="line"/>
      <point x="750" y="879" type="line"/>
      <point x="750" y="655" type="line"/>
      <point x="1108" y="655" type="line"/>
      <point x="1108" y="314" type="line"/>
      <point x="1003" y="265"/>
      <point x="904" y="238"/>
      <point x="816" y="238" type="curve" smooth="yes"/>
      <point x="613" y="238"/>
      <point x="474" y="399"/>
      <point x="474" y="768" type="curve" smooth="yes"/>
      <point x="474" y="1165"/>
      <point x="647" y="1336"/>
      <point x="882" y="1336" type="curve" smooth="yes"/>
      <point x="1006" y="1336"/>
      <point x="1162" y="1280"/>
      <point x="1252" y="1211" type="curve"/>
      <point x="1359" y="1458" type="line"/>
      <point x="1193" y="1549"/>
      <point x="1035" y="1602"/>
      <point x="861" y="1602" type="curve" smooth="yes"/>
      <point x="448" y="1602"/>
      <point x="102" y="1337"/>
      <point x="102" y="770" type="curve" smooth="yes"/>
      <point x="102" y="243"/>
      <point x="362" y="-28"/>
    </contour>
    <contour>
      <point x="791" y="1578" type="move" name="top"/>
    </contour>
    <contour>
      <point x="791" y="0" type="move" name="bottom"/>
    </contour>
  </outline>
</glyph>
<glyph name="K" format="1">
  <advance width="1459"/>
  <unicode hex="004B"/>
  <outline>
    <contour>
      <point x="167" y="0" type="line"/>
      <point x="536" y="0" type="line"/>
      <point x="536" y="666" type="line"/>
      <point x="554" y="666" type="line"/>
      <point x="1046" y="0" type="line"/>
      <point x="1489" y="0" type="line"/>
      <point x="895" y="788" type="line"/>
      <point x="1454" y="1578" type="line"/>
      <point x="1040" y="1578" type="line"/>
      <point x="562" y="908" type="line"/>
      <point x="536" y="908" type="line"/>
      <point x="536" y="1578" type="line"/>
      <point x="167" y="1578" type="line"/>
    </contour>
    <contour>
      <point x="754" y="1578" type="move" name="top"/>
    </contour>
    <contour>
      <point x="754" y="0" type="move" name="bottom"/>
    </contour>
  </outline>
</glyph>
<glyph name="M" format="1">
  <advance width="2005"/>
  <unicode hex="004D"/>
  <outline>
    <contour>
      <point x="167" y="0" type="line"/>
      <point x="473" y="0" type="line"/>
      <point x="473" y="1085" type="line"/>
      <point x="833" y="0" type="line"/>
      <point x="1177" y="0" type="line"/>
      <point x="1532" y="1085" type="line"/>
      <point x="1532" y="0" type="line"/>
      <point x="1838" y="0" type="line"/>
      <point x="1838" y="1578" type="line"/>
      <point x="1402" y="1578" type="line"/>
      <point x="996" y="408" type="line"/>
      <point x="602" y="1578" type="line"/>
      <point x="167" y="1578" type="line"/>
    </contour>
  </outline>
</glyph>
<glyph name="N" format="1">
  <advance width="1666"/>
  <unicode hex="004E"/>
  <outline>
    <contour>
      <point x="167" y="0" type="line"/>
      <point x="496" y="0" type="line"/>
      <point x="496" y="1074" type="line"/>
      <point x="1118" y="0" type="line"/>
      <point x="1499" y="0" type="line"/>
      <point x="1499" y="1578" type="line"/>
      <point x="1172" y="1578" type="line"/>
      <point x="1172" y="519" type="line"/>
      <point x="561" y="1578" type="line"/>
      <point x="167" y="1578" type="line"/>
    </contour>
    <contour>
      <point x="833" y="1578" type="move" name="top"/>
    </contour>
    <contour>
      <point x="833" y="0" type="move" name="bottom"/>
    </contour>
  </outline>
</glyph>
<glyph name="P" format="1">
  <advance width="1422"/>
  <unicode hex="0050"/>
  <outline>
    <contour>
      <point x="167" y="0" type="line"/>
      <point x="536" y="0" type="line"/>
      <point x="536" y="552" type="line"/>
      <point x="598" y="552" type="line" smooth="yes"/>
      <point x="1064" y="552"/>
      <point x="1368" y="655"/>
      <point x="1368" y="1052" type="curve"/>
      <point x="1361" y="1466"/>
      <point x="1079" y="1578"/>
      <point x="626" y="1578" type="curve" smooth="yes"/>
      <point x="167" y="1578" type="line"/>
    </contour>
    <contour>
      <point x="536" y="772" type="line"/>
      <point x="536" y="1354" type="line"/>
      <point x="626" y="1354" type="line" smooth="yes"/>
      <point x="865" y="1354"/>
      <point x="1000" y="1282"/>
      <point x="1000" y="1048" type="curve" smooth="yes"/>
      <point x="1000" y="832"/>
      <point x="828" y="772"/>
      <point x="596" y="772" type="curve" smooth="yes"/>
    </contour>
  </outline>
</glyph>
<glyph name="T" format="1">
  <advance width="1157"/>
  <unicode hex="0054"/>
  <outline>
    <contour>
      <point x="397" y="0" type="line"/>
      <point x="766" y="0" type="line"/>
      <point x="766" y="1310" type="line"/>
      <point x="1168" y="1310" type="line"/>
      <point x="1168" y="1578" type="line"/>
      <point x="-12" y="1578" type="line"/>
      <point x="-12" y="1310" type="line"/>
      <point x="397" y="1310" type="line"/>
    </contour>
    <contour>
      <point x="579" y="1578" type="move" name="top"/>
    </contour>
    <contour>
      <point x="579" y="0" type="move" name="bottom"/>
    </contour>
    <contour>
      <point x="579" y="789" type="move" name="center"/>
    </contour>
  </outline>
</glyph>
<glyph name="U" format="1">
  <advance width="1607"/>
  <unicode hex="0055"/>
  <outline>
    <contour>
      <point x="804" y="-28" type="curve" smooth="yes"/>
      <point x="1271" y="-28"/>
      <point x="1471" y="186"/>
      <point x="1471" y="723" type="curve" smooth="yes"/>
      <point x="1471" y="1578" type="line"/>
      <point x="1102" y="1578" type="line"/>
      <point x="1102" y="719" type="line" smooth="yes"/>
      <point x="1102" y="390"/>
      <point x="1055" y="238"/>
      <point x="795" y="238" type="curve" smooth="yes"/>
      <point x="535" y="238"/>
      <point x="505" y="390"/>
      <point x="505" y="719" type="curve" smooth="yes"/>
      <point x="505" y="1578" type="line"/>
      <point x="136" y="1578" type="line"/>
      <point x="136" y="723" type="line" smooth="yes"/>
      <point x="136" y="186"/>
      <point x="339" y="-28"/>
    </contour>
    <contour>
      <point x="804" y="1578" type="move" name="top"/>
    </contour>
    <contour>
      <point x="1449" y="10" type="move" name="ogonek"/>
    </contour>
  </outline>
</glyph>
<glyph name="X" format="1">
  <advance width="1374"/>
  <unicode hex="0058"/>
  <outline>
    <contour>
      <point x="-2" y="0" type="line"/>
      <point x="389" y="0" type="line"/>
      <point x="687" y="494" type="line"/>
      <point x="985" y="0" type="line"/>
      <point x="1376" y="0" type="line"/>
      <point x="893" y="797" type="line"/>
      <point x="1376" y="1578" type="line"/>
      <point x="993" y="1578" type="line"/>
      <point x="687" y="1067" type="line"/>
      <point x="381" y="1578" type="line"/>
      <point x="-2" y="1578" type="line"/>
      <point x="481" y="797" type="line"/>
    </contour>
  </outline>
</glyph>
<glyph name="bracketright" format="1">
  <advance width="1157"/>
  <unicode hex="005D"/>
  <outline>
    <contour>
      <point x="229" y="0" type="line"/>
      <point x="979" y="0" type="line"/>
      <point x="979" y="1578" type="line"/>
      <point x="229" y="1578" type="line"/>
      <point x="229" y="1316" type="line"/>
      <point x="645" y="1316" type="line"/>
      <point x="645" y="262" type="line"/>
      <point x="229" y="262" type="line"/>
    </contour>
  </outline>
</glyph>
<glyph name="underscore" format="1">
  <advance width="1130"/>
  <unicode hex="005F"/>
  <outline>
    <contour>
      <point x="67" y="-98" type="line"/>
      <point x="1063" y="-98" type="line"/>
      <point x="1063" y="164" type="line"/>
      <point x="67" y="164" type="line"/>
    </contour>
  </outline>
</glyph>
<glyph name="d" format="1">
  <advance width="1338"/>
  <unicode hex="0064"/>
  <outline>
    <contour>
      <point x="582" y="-21" type="curve" smooth="yes"/>
      <point x="715" y="-14"/>
      <point x="812" y="60"/>
      <point x="878" y="166" type="curve"/>
      <point x="954" y="0" type="line"/>
      <point x="1201" y="0" type="line"/>
      <point x="1201" y="1638" type="line"/>
      <point x="850" y="1578" type="line"/>
      <point x="850" y="1046" type="line"/>
      <point x="777" y="1146"/>
      <point x="674" y="1196"/>
      <point x="541" y="1196" type="curve" smooth="yes"/>
      <point x="268" y="1196"/>
      <point x="76" y="950"/>
      <point x="76" y="624" type="curve" smooth="yes"/>
      <point x="76" y="307"/>
      <point x="197" y="-41"/>
    </contour>
    <contour>
      <point x="653" y="210" type="curve" smooth="yes"/>
      <point x="518" y="210"/>
      <point x="426" y="335"/>
      <point x="426" y="586" type="curve" smooth="yes"/>
      <point x="426" y="837"/>
      <point x="486" y="962"/>
      <point x="615" y="962" type="curve" smooth="yes"/>
      <point x="692" y="962"/>
      <point x="771" y="927"/>
      <point x="850" y="856" type="curve"/>
      <point x="850" y="296" type="line"/>
      <point x="809" y="239"/>
      <point x="748" y="210"/>
    </contour>
    <contour>
      <point x="677" y="582" type="move" name="center"/>
    </contour>
  </outline>
</glyph>
<glyph name="e" format="1">
  <advance width="1203"/>
  <unicode hex="0065"/>
  <outline>
    <contour>
      <point x="675" y="-26" type="curve" smooth="yes"/>
      <point x="809" y="-26"/>
      <point x="941" y="7"/>
      <point x="1064" y="70" type="curve"/>
      <point x="998" y="304" type="line"/>
      <point x="915" y="244"/>
      <point x="816" y="212"/>
      <point x="702" y="212" type="curve" smooth="yes"/>
      <point x="536" y="212"/>
      <point x="434" y="325"/>
      <point x="428" y="502" type="curve"/>
      <point x="1119" y="502" type="line"/>
      <point x="1119" y="666" type="line" smooth="yes"/>
      <point x="1119" y="979"/>
      <point x="953" y="1196"/>
      <point x="640" y="1196" type="curve" smooth="yes"/>
      <point x="266" y="1196"/>
      <point x="68" y="920"/>
      <point x="68" y="546" type="curve" smooth="yes"/>
      <point x="68" y="182"/>
      <point x="313" y="-26"/>
    </contour>
    <contour>
      <point x="417" y="676" type="line"/>
      <point x="417" y="839"/>
      <point x="492" y="960"/>
      <point x="634" y="960" type="curve" smooth="yes"/>
      <point x="774.002066076" y="960.0"/>
      <point x="841.220348156" y="870.201824941"/>
      <point x="844.84485358" y="691.524475557" type="curve" smooth="yes"/>
      <point x="844.948355861" y="686.422120595"/>
      <point x="845.0" y="681.247288276"/>
      <point x="845" y="676" type="curve"/>
    </contour>
    <contour>
      <point x="602" y="1164" type="move" name="top"/>
    </contour>
    <contour>
      <point x="602" y="0" type="move" name="bottom"/>
    </contour>
    <contour>
      <point x="1083" y="10" type="move" name="ogonek"/>
    </contour>
  </outline>
</glyph>
<glyph name="h" format="1">
  <advance width="1349"/>
  <unicode hex="0068"/>
  <outline>
    <contour>
      <point x="146" y="0" type="line"/>
      <point x="496" y="0" type="line"/>
      <point x="496" y="884" type="line"/>
      <point x="496" y="884"/>
      <point x="571" y="962"/>
      <point x="710" y="962" type="curve" smooth="yes"/>
      <point x="799" y="962"/>
      <point x="874" y="888"/>
      <point x="874" y="747" type="curve" smooth="yes"/>
      <point x="874" y="0" type="line"/>
      <point x="1224" y="0" type="line"/>
      <point x="1224" y="723" type="line" smooth="yes"/>
      <point x="1224" y="1071"/>
      <point x="1017" y="1196"/>
      <point x="819" y="1196" type="curve" smooth="yes"/>
      <point x="686" y="1196"/>
      <point x="557" y="1140"/>
      <point x="496" y="1057" type="curve"/>
      <point x="496" y="1638" type="line"/>
      <point x="146" y="1578" type="line"/>
    </contour>
    <contour>
      <point x="675" y="1164" type="move" name="top"/>
    </contour>
    <contour>
      <point x="675" y="582" type="move" name="center"/>
    </contour>
  </outline>
</glyph>
<glyph name="k" format="1">
  <advance width="1308"/>
  <unicode hex="006B"/>
  <outline>
    <contour>
      <point x="146" y="0" type="line"/>
      <point x="497" y="0" type="line"/>
      <point x="497" y="415" type="line"/>
      <point x="589" y="502" type="line"/>
      <point x="913" y="0" type="line"/>
      <point x="1318" y="0" type="line"/>
      <point x="816" y="665" type="line"/>
      <point x="1298" y="1164" type="line"/>
      <point x="894" y="1164" type="line"/>
      <point x="497" y="716" type="line"/>
      <point x="497" y="1638" type="line"/>
      <point x="146" y="1578" type="line"/>
    </contour>
    <contour>
      <point x="654" y="0" type="move" name="bottom"/>
    </contour>
  </outline>
</glyph>
<glyph name="l" format="1">
  <advance width="649"/>
  <unicode hex="006C"/>
  <outline>
    <contour>
      <point x="156" y="0" type="line"/>
      <point x="507" y="0" type="line"/>
      <point x="507" y="1638" type="line"/>
      <point x="156" y="1578" type="line"/>
    </contour>
    <contour>
      <point x="325" y="1164" type="move" name="top"/>
    </contour>
    <contour>
      <point x="325" y="0" type="move" name="bottom"/>
    </contour>
    <contour>
      <point x="629" y="1164" type="move" name="topright"/>
    </contour>
  </outline>
</glyph>
<glyph name="p" format="1">
  <advance width="1338"/>
  <unicode hex="0070"/>
  <outline>
    <contour>
      <point x="140" y="-406" type="line"/>
      <point x="491" y="-406" type="line"/>
      <point x="491" y="100" type="line"/>
      <point x="579" y="23"/>
      <point x="672" y="-28"/>
      <point x="790" y="-28" type="curve" smooth="yes"/>
      <point x="1011" y="-28"/>
      <point x="1262" y="152"/>
      <point x="1262" y="568" type="curve" smooth="yes"/>
      <point x="1262" y="1047"/>
      <point x="1023" y="1196"/>
      <point x="814" y="1196" type="curve" smooth="yes"/>
      <point x="652" y="1196"/>
      <point x="545" y="1102"/>
      <point x="452" y="1009" type="curve"/>
      <point x="386" y="1164" type="line"/>
      <point x="140" y="1164" type="line"/>
    </contour>
    <contour>
      <point x="725" y="206" type="curve" smooth="yes"/>
      <point x="667" y="206"/>
      <point x="590" y="239"/>
      <point x="491" y="318" type="curve"/>
      <point x="491" y="857" type="line"/>
      <point x="560" y="928"/>
      <point x="638" y="964"/>
      <point x="723" y="964" type="curve" smooth="yes"/>
      <point x="892" y="964"/>
      <point x="914" y="773"/>
      <point x="914" y="601" type="curve" smooth="yes"/>
      <point x="914" y="340"/>
      <point x="862" y="206"/>
    </contour>
  </outline>
</glyph>
<glyph name="w" format="1">
  <advance width="1651"/>
  <unicode hex="0077"/>
  <outline>
    <contour>
      <point x="330" y="0" type="line"/>
      <point x="679" y="0" type="line"/>
      <point x="825" y="702" type="line"/>
      <point x="975" y="0" type="line"/>
      <point x="1328" y="0" type="line"/>
      <point x="1618" y="1164" type="line"/>
      <point x="1299" y="1164" type="line"/>
      <point x="1138" y="355" type="line"/>
      <point x="983" y="1164" type="line"/>
      <point x="676" y="1164" type="line"/>
      <point x="521" y="363" type="line"/>
      <point x="358" y="1164" type="line"/>
      <point x="33" y="1164" type="line"/>
    </contour>
    <contour>
      <point x="826" y="1164" type="move" name="top"/>
    </contour>
  </outline>
</glyph>
<glyph name="x" format="1">
  <advance width="1188"/>
  <unicode hex="0078"/>
  <outline>
    <contour>
      <point x="22" y="0" type="line"/>
      <point x="409" y="0" type="line"/>
      <point x="596" y="346" type="line"/>
      <point x="786" y="0" type="line"/>
      <point x="1168" y="0" type="line"/>
      <point x="779" y="584" type="line"/>
      <point x="1174" y="1164" type="line"/>
      <point x="786" y="1164" type="line"/>
      <point x="600" y="833" type="line"/>
      <point x="409" y="1164" type="line"/>
      <point x="14" y="1164" type="line"/>
      <point x="418" y="584" type="line"/>
    </contour>
  </outline>
</glyph>
<glyph name="cent" format="1">
  <advance width="1097"/>
  <unicode hex="00A2"/>
  <outline>
    <contour>
      <point x="620" y="-147" type="line"/>
      <point x="783" y="-147" type="line"/>
      <point x="783" y="-4.80192" type="line"/>
      <point x="897.192" y="11.5808"/>
      <point x="966.884" y="47.7058"/>
      <point x="1042" y="86" type="curve"/>
      <point x="977.027" y="310.906" type="line"/>
      <point x="975.346" y="308.156"/>
      <point x="882.856" y="246.163"/>
      <point x="783" y="227.359" type="curve"/>
      <point x="783" y="940.65" type="line"/>
      <point x="867.682" y="922.972"/>
      <point x="953.158" y="884.336"/>
      <point x="978" y="861" type="curve"/>
      <point x="1043" y="1086" type="line"/>
      <point x="954.961" y="1132.48"/>
      <point x="881.804" y="1163.1"/>
      <point x="783" y="1177.13" type="curve"/>
      <point x="783" y="1377" type="line"/>
      <point x="620" y="1377" type="line"/>
      <point x="620" y="1185.59" type="line"/>
      <point x="341.01" y="1175.14"/>
      <point x="78" y="966.024"/>
      <point x="78" y="586" type="curve" smooth="yes"/>
      <point x="78" y="208.646"/>
      <point x="315.97" y="-4.32691"/>
      <point x="620" y="-13.6784" type="curve"/>
    </contour>
    <contour>
      <point x="620" y="236.985" type="line"/>
      <point x="493.502" y="276.188"/>
      <point x="430" y="392.358"/>
      <point x="430" y="586" type="curve" smooth="yes"/>
      <point x="430" y="803.192"/>
      <point x="482.545" y="913.854"/>
      <point x="620" y="942.415" type="curve"/>
    </contour>
    <contour>
      <point x="977.027" y="311" type="curve"/>
      <point x="977.027" y="310.968"/>
      <point x="977.084" y="311"/>
    </contour>
  </outline>
</glyph>
<glyph name="sterling" format="1">
  <advance width="1203"/>
  <unicode hex="00A3"/>
  <outline>
    <contour>
      <point x="191" y="0" type="line"/>
      <point x="1062" y="0" type="line"/>
      <point x="1062" y="266" type="line"/>
      <point x="471" y="266" type="line"/>
      <point x="474" y="268"/>
      <point x="617" y="346"/>
      <point x="617" y="572" type="curve"/>
      <point x="1004" y="572" type="line"/>
      <point x="1004" y="720" type="line"/>
      <point x="599" y="720" type="line"/>
      <point x="555.668" y="771.999"/>
      <point x="519" y="838.504"/>
      <point x="519" y="909" type="curve" smooth="yes"/>
      <point x="519" y="975"/>
      <point x="536" y="1061"/>
      <point x="701" y="1061" type="curve" smooth="yes"/>
      <point x="842.416" y="1061"/>
      <point x="928.771" y="1002.71"/>
      <point x="964" y="971" type="curve"/>
      <point x="1097" y="1189" type="line"/>
      <point x="1055.49" y="1221.28"/>
      <point x="920.166" y="1322"/>
      <point x="659" y="1322" type="curve" smooth="yes"/>
      <point x="360" y="1322"/>
      <point x="197" y="1167"/>
      <point x="197" y="956" type="curve" smooth="yes"/>
      <point x="197" y="814"/>
      <point x="304" y="715"/>
      <point x="309" y="715" type="curve" smooth="yes"/>
      <point x="206" y="715" type="line"/>
      <point x="206" y="572" type="line"/>
      <point x="333" y="573" type="line"/>
      <point x="333.0" y="437.0"/>
      <point x="191" y="260"/>
      <point x="191" y="260" type="curve"/>
    </contour>
  </outline>
</glyph>
<glyph name="section" format="1">
  <advance width="1123"/>
  <unicode hex="00A7"/>
  <outline>
    <contour>
      <point x="532" y="-110" type="curve" smooth="yes"/>
      <point x="745" y="-110"/>
      <point x="999" y="-55"/>
      <point x="999" y="226" type="curve" smooth="yes"/>
      <point x="999" y="329"/>
      <point x="957" y="445"/>
      <point x="813" y="506" type="curve"/>
      <point x="932" y="542"/>
      <point x="997" y="636"/>
      <point x="997" y="743" type="curve" smooth="yes"/>
      <point x="997" y="888"/>
      <point x="958" y="985"/>
      <point x="643" y="1098" type="curve" smooth="yes"/>
      <point x="487" y="1154" type="line" smooth="yes"/>
      <point x="376" y="1194"/>
      <point x="365" y="1215"/>
      <point x="365" y="1236" type="curve" smooth="yes"/>
      <point x="365" y="1271"/>
      <point x="364" y="1340"/>
      <point x="546" y="1340" type="curve" smooth="yes"/>
      <point x="638" y="1340"/>
      <point x="801" y="1273"/>
      <point x="867" y="1220" type="curve"/>
      <point x="959" y="1423" type="line"/>
      <point x="906.842" y="1460.26"/>
      <point x="753.104" y="1578"/>
      <point x="535" y="1578" type="curve" smooth="yes"/>
      <point x="219" y="1578"/>
      <point x="108" y="1412"/>
      <point x="108" y="1274" type="curve" smooth="yes"/>
      <point x="108" y="1140"/>
      <point x="170" y="1050"/>
      <point x="297" y="1005" type="curve"/>
      <point x="154" y="966"/>
      <point x="108" y="846"/>
      <point x="108" y="768" type="curve" smooth="yes"/>
      <point x="108" y="605"/>
      <point x="163" y="524"/>
      <point x="422" y="437" type="curve" smooth="yes"/>
      <point x="582" y="383" type="line"/>
      <point x="691" y="349"/>
      <point x="729" y="321"/>
      <point x="729" y="250" type="curve" smooth="yes"/>
      <point x="729" y="169"/>
      <point x="659" y="128"/>
      <point x="520" y="128" type="curve" smooth="yes"/>
      <point x="377.214" y="128"/>
      <point x="274.289" y="193.872"/>
      <point x="201" y="258" type="curve"/>
      <point x="106" y="43" type="line"/>
      <point x="190.544" y="-29.8826"/>
      <point x="377.6" y="-110"/>
    </contour>
    <contour>
      <point x="547" y="648" type="curve" smooth="yes"/>
      <point x="416" y="648"/>
      <point x="363" y="682"/>
      <point x="363" y="750" type="curve" smooth="yes"/>
      <point x="363" y="799"/>
      <point x="380" y="852"/>
      <point x="548" y="852" type="curve" smooth="yes"/>
      <point x="705" y="852"/>
      <point x="736" y="807"/>
      <point x="736" y="748" type="curve" smooth="yes"/>
      <point x="736" y="681"/>
      <point x="673" y="648"/>
    </contour>
  </outline>
</glyph>
<glyph name="ordfeminine" format="1">
  <advance width="1249"/>
  <unicode hex="00AA"/>
  <outline>
    <contour>
      <point x="518" y="608" type="curve" smooth="yes"/>
      <point x="637" y="608"/>
      <point x="710" y="656"/>
      <point x="763" y="749" type="curve"/>
      <point x="802" y="629" type="line"/>
      <point x="1019" y="629" type="line"/>
      <point x="1019" y="1168" type="line" smooth="yes"/>
      <point x="1019" y="1446"/>
      <point x="905" y="1586"/>
      <point x="626" y="1586" type="curve" smooth="yes"/>
      <point x="475" y="1586"/>
      <point x="350" y="1556"/>
      <point x="251" y="1495" type="curve"/>
      <point x="318" y="1327" type="line"/>
      <point x="409" y="1370"/>
      <point x="509" y="1392"/>
      <point x="616" y="1392" type="curve" smooth="yes"/>
      <point x="698" y="1392"/>
      <point x="740" y="1375"/>
      <point x="740" y="1203" type="curve"/>
      <point x="705" y="1209"/>
      <point x="665" y="1212"/>
      <point x="618" y="1212" type="curve" smooth="yes"/>
      <point x="349" y="1212"/>
      <point x="192" y="1117"/>
      <point x="192" y="918" type="curve" smooth="yes"/>
      <point x="192" y="719"/>
      <point x="311" y="608"/>
    </contour>
    <contour>
      <point x="591" y="803" type="curve" smooth="yes"/>
      <point x="516" y="803"/>
      <point x="472" y="850"/>
      <point x="472" y="941" type="curve" smooth="yes"/>
      <point x="472" y="1032"/>
      <point x="526" y="1067"/>
      <point x="663" y="1067" type="curve" smooth="yes"/>
      <point x="677" y="1067"/>
      <point x="740" y="1062"/>
      <point x="740" y="1060" type="curve" smooth="yes"/>
      <point x="740" y="877" type="line"/>
      <point x="699" y="828"/>
      <point x="650" y="803"/>
    </contour>
  </outline>
</glyph>
<glyph name="degree" format="1">
  <advance width="820"/>
  <unicode hex="00B0"/>
  <outline>
    <contour>
      <point x="396" y="843" type="curve" smooth="yes"/>
      <point x="298" y="843"/>
      <point x="216" y="919"/>
      <point x="216" y="1019" type="curve" smooth="yes"/>
      <point x="216" y="1118.85"/>
      <point x="298.28" y="1196"/>
      <point x="396" y="1196" type="curve" smooth="yes"/>
      <point x="492" y="1196"/>
      <point x="576" y="1121"/>
      <point x="576" y="1019" type="curve" smooth="yes"/>
      <point x="576" y="919"/>
      <point x="494" y="843"/>
    </contour>
    <contour>
      <point x="386" y="680" type="curve" smooth="yes"/>
      <point x="578" y="680"/>
      <point x="761" y="813"/>
      <point x="761" y="1015" type="curve" smooth="yes"/>
      <point x="761" y="1214"/>
      <point x="592" y="1359"/>
      <point x="397" y="1359" type="curve" smooth="yes"/>
      <point x="210" y="1359"/>
      <point x="31" y="1218"/>
      <point x="31" y="1024" type="curve" smooth="yes"/>
      <point x="31" y="834"/>
      <point x="195" y="680"/>
    </contour>
  </outline>
</glyph>
<glyph name="cedilla" format="1">
  <advance width="659"/>
  <unicode hex="00B8"/>
  <outline>
    <contour>
      <point x="292" y="-665" type="curve" smooth="yes"/>
      <point x="481" y="-665"/>
      <point x="582" y="-571"/>
      <point x="582" y="-395" type="curve"/>
      <point x="578" y="-200"/>
      <point x="348" y="-151"/>
      <point x="248" y="-151" type="curve"/>
      <point x="258" y="0" type="line"/>
      <point x="138" y="0" type="line"/>
      <point x="128" y="-239" type="line"/>
      <point x="301" y="-239"/>
      <point x="388" y="-293"/>
      <point x="388" y="-401" type="curve" smooth="yes"/>
      <point x="388" y="-502"/>
      <point x="338" y="-517"/>
      <point x="250" y="-517" type="curve" smooth="yes"/>
      <point x="168.919" y="-517"/>
      <point x="107.419" y="-488.71"/>
      <point x="78" y="-474" type="curve"/>
      <point x="78" y="-611" type="line"/>
      <point x="140.261" y="-646.578"/>
      <point x="214.82" y="-665"/>
    </contour>
    <contour>
      <point x="330" y="0" type="move" name="_bottom"/>
    </contour>
  </outline>
</glyph>
<glyph name="onehalf" format="1">
  <advance width="2090"/>
  <unicode hex="00BD"/>
  <outline>
    <contour>
      <point x="1283" y="96" type="line"/>
      <point x="1970" y="96" type="line"/>
      <point x="1970" y="310" type="line"/>
      <point x="1642" y="310" type="line"/>
      <point x="1865.5" y="439"/>
      <point x="1995.42" y="595.758"/>
      <point x="1994" y="763" type="curve"/>
      <point x="1994" y="973"/>
      <point x="1807" y="1049"/>
      <point x="1622" y="1049" type="curve" smooth="yes"/>
      <point x="1485.35" y="1049"/>
      <point x="1359.4" y="989.174"/>
      <point x="1261" y="947" type="curve"/>
      <point x="1333" y="756" type="line"/>
      <point x="1398.82" y="787.416"/>
      <point x="1519.61" y="840"/>
      <point x="1604" y="840" type="curve" smooth="yes"/>
      <point x="1691" y="840"/>
      <point x="1728" y="802"/>
      <point x="1728" y="725" type="curve" smooth="yes"/>
      <point x="1728" y="552.1"/>
      <point x="1392.63" y="362.32"/>
      <point x="1283" y="270" type="curve"/>
    </contour>
    <contour>
      <point x="258" y="411" type="line"/>
      <point x="522" y="411" type="line"/>
      <point x="522" y="1333" type="line"/>
      <point x="344" y="1373" type="line"/>
      <point x="58" y="1261" type="line"/>
      <point x="133" y="1071" type="line"/>
      <point x="258" y="1125" type="line"/>
    </contour>
    <contour>
      <point x="666" y="-107" type="line"/>
      <point x="1379" y="1458" type="line"/>
      <point x="1153" y="1541" type="line"/>
      <point x="447" y="-29" type="line"/>
    </contour>
  </outline>
</glyph>
<glyph name="multiply" format="1">
  <advance width="1318"/>
  <unicode hex="00D7"/>
  <outline>
    <contour>
      <point x="390" y="93" type="line"/>
      <point x="680" y="367" type="line"/>
      <point x="970" y="93" type="line"/>
      <point x="1152" y="292" type="line"/>
      <point x="876" y="553" type="line"/>
      <point x="1152" y="813" type="line"/>
      <point x="970" y="1012" type="line"/>
      <point x="680" y="738" type="line"/>
      <point x="390" y="1012" type="line"/>
      <point x="208" y="813" type="line"/>
      <point x="484" y="553" type="line"/>
      <point x="208" y="292" type="line"/>
    </contour>
  </outline>
</glyph>
<glyph name="germandbls" format="1">
  <advance width="1564"/>
  <unicode hex="00DF"/>
  <outline>
    <contour>
      <point x="630" y="-197" type="line"/>
      <point x="1079" y="-197"/>
      <point x="1503" y="-26"/>
      <point x="1503" y="355" type="curve"/>
      <point x="1503" y="631"/>
      <point x="1338" y="786"/>
      <point x="1009" y="819" type="curve"/>
      <point x="1253" y="849"/>
      <point x="1344" y="996"/>
      <point x="1344" y="1157" type="curve" smooth="yes"/>
      <point x="1344" y="1322"/>
      <point x="1260" y="1576"/>
      <point x="764" y="1579" type="curve"/>
      <point x="325" y="1579"/>
      <point x="139" y="1369"/>
      <point x="139" y="980" type="curve" smooth="yes"/>
      <point x="139" y="0" type="line"/>
      <point x="510" y="0" type="line"/>
      <point x="510" y="980" type="line" smooth="yes"/>
      <point x="510" y="1239"/>
      <point x="565" y="1334"/>
      <point x="764" y="1334" type="curve" smooth="yes"/>
      <point x="981" y="1334"/>
      <point x="1021" y="1253"/>
      <point x="1021" y="1135" type="curve" smooth="yes"/>
      <point x="1021" y="970"/>
      <point x="911" y="907"/>
      <point x="715" y="907" type="curve" smooth="yes"/>
      <point x="658" y="907" type="line"/>
      <point x="659" y="762"/>
      <point x="658" y="689"/>
      <point x="658" y="689" type="curve"/>
      <point x="976" y="689"/>
      <point x="1137" y="581"/>
      <point x="1137" y="364" type="curve" smooth="yes"/>
      <point x="1137" y="209"/>
      <point x="1031" y="114"/>
      <point x="629" y="84" type="curve"/>
    </contour>
  </outline>
</glyph>
<glyph name="oslash" format="1">
  <advance width="1294"/>
  <unicode hex="00F8"/>
  <outline>
    <contour>
      <point x="449" y="-177" type="line"/>
      <point x="502.724" y="-14.6425" type="line"/>
      <point x="544.962" y="-22.1645"/>
      <point x="590.083" y="-26"/>
      <point x="638" y="-26" type="curve" smooth="yes"/>
      <point x="1005" y="-26"/>
      <point x="1206" y="199"/>
      <point x="1206" y="582" type="curve" smooth="yes"/>
      <point x="1206" y="868.498"/>
      <point x="1093.14" y="1066.67"/>
      <point x="888.347" y="1150.75" type="curve"/>
      <point x="947" y="1328" type="line"/>
      <point x="843" y="1364" type="line"/>
      <point x="782.642" y="1182.32" type="line"/>
      <point x="737.366" y="1191.38"/>
      <point x="688.768" y="1196"/>
      <point x="637" y="1196" type="curve" smooth="yes"/>
      <point x="274" y="1196"/>
      <point x="68" y="970"/>
      <point x="68" y="582" type="curve" smooth="yes"/>
      <point x="68" y="294.444"/>
      <point x="182.431" y="95.952"/>
      <point x="394.788" y="14.8811" type="curve"/>
      <point x="343" y="-141" type="line"/>
    </contour>
    <contour>
      <point x="483.84" y="282.928" type="line"/>
      <point x="427.901" y="359.977"/>
      <point x="418" y="482.681"/>
      <point x="418" y="584" type="curve" smooth="yes"/>
      <point x="418" y="842"/>
      <point x="488" y="960"/>
      <point x="638" y="960" type="curve" smooth="yes"/>
      <point x="662.672" y="960"/>
      <point x="685.179" y="956.808"/>
      <point x="705.567" y="950.325" type="curve"/>
    </contour>
    <contour>
      <point x="638" y="208" type="curve" smooth="yes"/>
      <point x="616.263" y="208"/>
      <point x="596.638" y="210.672"/>
      <point x="578.924" y="215.642" type="curve"/>
      <point x="798.239" y="878.432" type="line"/>
      <point x="838.567" y="817.008"/>
      <point x="858" y="719.937"/>
      <point x="858" y="584" type="curve" smooth="yes"/>
      <point x="858" y="326"/>
      <point x="788" y="208"/>
    </contour>
    <contour>
      <point x="647" y="1164" type="move" name="top"/>
    </contour>
  </outline>
</glyph>
<glyph name="thorn" format="1">
  <advance width="1312"/>
  <unicode hex="00FE"/>
  <outline>
    <contour>
      <point x="123" y="-406" type="line"/>
      <point x="474" y="-406" type="line"/>
      <point x="474" y="98" type="line"/>
      <point x="535" y="14"/>
      <point x="626" y="-28"/>
      <point x="747" y="-28" type="curve" smooth="yes"/>
      <point x="1038" y="-28"/>
      <point x="1234" y="187"/>
      <point x="1234" y="565" type="curve" smooth="yes"/>
      <point x="1234" y="922"/>
      <point x="1084" y="1178"/>
      <point x="759" y="1178" type="curve" smooth="yes"/>
      <point x="634" y="1178"/>
      <point x="522" y="1132"/>
      <point x="470" y="1041" type="curve"/>
      <point x="470" y="1578" type="line"/>
      <point x="123" y="1578" type="line"/>
    </contour>
    <contour>
      <point x="710" y="206" type="curve" smooth="yes"/>
      <point x="618" y="206"/>
      <point x="539" y="238"/>
      <point x="474" y="302" type="curve"/>
      <point x="474" y="865" type="line"/>
      <point x="505" y="898"/>
      <point x="549" y="942"/>
      <point x="679" y="942" type="curve" smooth="yes"/>
      <point x="814" y="942"/>
      <point x="881" y="824"/>
      <point x="881" y="589" type="curve" smooth="yes"/>
      <point x="881" y="440"/>
      <point x="877" y="206"/>
    </contour>
  </outline>
</glyph>
<glyph name="gcedilla" format="1">
  <advance width="1268"/>
  <unicode hex="0123"/>
  <outline>
    <contour>
      <point x="443" y="1298" type="line"/>
      <point x="861" y="1298" type="line"/>
      <point x="861" y="1713" type="line"/>
      <point x="683" y="1713" type="line"/>
      <point x="683" y="1815"/>
      <point x="733" y="1860"/>
      <point x="860" y="1906" type="curve"/>
      <point x="798" y="2020" type="line"/>
      <point x="630" y="1970"/>
      <point x="443" y="1900"/>
      <point x="443" y="1660" type="curve" smooth="yes"/>
    </contour>
    <component base="g"/>
  </outline>
</glyph>
<glyph name="Hbar" format="1">
  <advance width="1591"/>
  <unicode hex="0126"/>
  <outline>
    <contour>
      <point x="146" y="0" type="line"/>
      <point x="515" y="0" type="line"/>
      <point x="515" y="704" type="line"/>
      <point x="1076" y="704" type="line"/>
      <point x="1076" y="0" type="line"/>
      <point x="1445" y="0" type="line"/>
      <point x="1445" y="1188" type="line"/>
      <point x="1591" y="1188" type="line"/>
      <point x="1591" y="1350" type="line"/>
      <point x="1445" y="1350" type="line"/>
      <point x="1445" y="1578" type="line"/>
      <point x="1076" y="1578" type="line"/>
      <point x="1076" y="1350" type="line"/>
      <point x="515" y="1350" type="line"/>
      <point x="515" y="1578" type="line"/>
      <point x="146" y="1578" type="line"/>
      <point x="146" y="1350" type="line"/>
      <point x="-1" y="1350" type="line"/>
      <point x="-1" y="1188" type="line"/>
      <point x="146" y="1188" type="line"/>
    </contour>
    <contour>
      <point x="515" y="930" type="line"/>
      <point x="515" y="1188" type="line"/>
      <point x="1076" y="1188" type="line"/>
      <point x="1076" y="930" type="line"/>
    </contour>
  </outline>
</glyph>
<glyph name="uni02C9" format="1">
  <advance width="1003"/>
  <unicode hex="02C9"/>
  <outline>
    <contour>
      <point x="160" y="98" type="line"/>
      <point x="842" y="98" type="line"/>
      <point x="842" y="285" type="line"/>
      <point x="160" y="285" type="line"/>
    </contour>
  </outline>
</glyph>
<glyph name="uni0311" format="1">
  <advance width="647"/>
  <unicode hex="0311"/>
  <outline>
    <contour>
      <point x="-24" y="1298" type="curve"/>
      <point x="197" y="1298" type="line"/>
      <point x="199" y="1395"/>
      <point x="267" y="1449"/>
      <point x="334" y="1449" type="curve" smooth="yes"/>
      <point x="405" y="1449"/>
      <point x="473" y="1395"/>
      <point x="474" y="1298" type="curve"/>
      <point x="696" y="1298" type="line"/>
      <point x="685" y="1524"/>
      <point x="513" y="1638"/>
      <point x="334" y="1638" type="curve" smooth="yes"/>
      <point x="159" y="1638"/>
      <point x="-13" y="1524"/>
    </contour>
  </outline>
</glyph>
<glyph name="uni2010" format="1">
  <advance width="1120"/>
  <unicode hex="2010"/>
  <outline>
    <contour>
      <point x="156" y="574" type="line"/>
      <point x="950" y="574" type="line"/>
      <point x="950" y="836" type="line"/>
      <point x="156" y="836" type="line"/>
    </contour>
  </outline>
</glyph>
<glyph name="endash" format="1">
  <advance width="1024"/>
  <unicode hex="2013"/>
  <outline>
    <contour>
      <point x="156" y="574" type="line"/>
      <point x="854" y="574" type="line"/>
      <point x="854" y="836" type="line"/>
      <point x="156" y="836" type="line"/>
    </contour>
  </outline>
</glyph>
<glyph name="daggerdbl" format="1">
  <advance width="1157"/>
  <unicode hex="2021"/>
  <outline>
    <contour>
      <point x="397" y="0" type="line"/>
      <point x="766" y="0" type="line"/>
      <point x="766" y="371.88" type="line"/>
      <point x="1168" y="371.88" type="line"/>
      <point x="1168" y="639.88" type="line"/>
      <point x="766" y="639.88" type="line"/>
      <point x="766" y="975" type="line"/>
      <point x="1168" y="975" type="line"/>
      <point x="1168" y="1243" type="line"/>
      <point x="766" y="1243" type="line"/>
      <point x="766" y="1641.2" type="line"/>
      <point x="397" y="1641.2" type="line"/>
      <point x="397" y="1243" type="line"/>
      <point x="-12" y="1243" type="line"/>
      <point x="-12" y="975" type="line"/>
      <point x="397" y="975" type="line"/>
      <point x="397" y="639.88" type="line"/>
      <point x="-12" y="639.88" type="line"/>
      <point x="-12" y="371.88" type="line"/>
      <point x="397" y="371.88" type="line"/>
    </contour>
  </outline>
</glyph>
<glyph name="guilsinglleft" format="1">
  <advance width="1194"/>
  <unicode hex="2039"/>
  <outline>
    <contour>
      <point x="973" y="-37" type="line"/>
      <point x="973" y="264" type="line"/>
      <point x="427" y="594" type="line"/>
      <point x="972" y="924" type="line"/>
      <point x="972" y="1225" type="line"/>
      <point x="132" y="712" type="line"/>
      <point x="132" y="476" type="line"/>
    </contour>
  </outline>
</glyph>
<glyph name="uni2074" format="1">
  <advance width="1144"/>
  <unicode hex="2074"/>
  <outline>
    <contour>
      <point x="618" y="496" type="line"/>
      <point x="862" y="496" type="line"/>
      <point x="862" y="717" type="line"/>
      <point x="1001" y="717" type="line"/>
      <point x="1001" y="924" type="line"/>
      <point x="862" y="924" type="line"/>
      <point x="862" y="1591" type="line"/>
      <point x="655" y="1644" type="line"/>
      <point x="136" y="878" type="line"/>
      <point x="169" y="717" type="line"/>
      <point x="618" y="717" type="line"/>
    </contour>
    <contour>
      <point x="442" y="922" type="line"/>
      <point x="618" y="1218" type="line"/>
      <point x="618" y="922" type="line"/>
    </contour>
  </outline>
</glyph>
<glyph name="Euro" format="1">
  <advance width="1285"/>
  <unicode hex="20AC"/>
  <outline>
    <contour>
      <point x="755" y="-37" type="curve" smooth="yes"/>
      <point x="944" y="-37"/>
      <point x="1086" y="25"/>
      <point x="1157" y="94" type="curve"/>
      <point x="1087" y="348" type="line"/>
      <point x="1020.91" y="302.246"/>
      <point x="910.564" y="240"/>
      <point x="786" y="240" type="curve" smooth="yes"/>
      <point x="628" y="240"/>
      <point x="538" y="345"/>
      <point x="515" y="554" type="curve"/>
      <point x="848" y="554" type="line"/>
      <point x="848" y="743" type="line"/>
      <point x="508" y="743" type="line"/>
      <point x="509" y="793"/>
      <point x="511" y="830"/>
      <point x="514" y="855" type="curve"/>
      <point x="913" y="855" type="line"/>
      <point x="913" y="1044" type="line"/>
      <point x="552" y="1044" type="line"/>
      <point x="608" y="1220"/>
      <point x="713" y="1319"/>
      <point x="853" y="1319" type="curve" smooth="yes"/>
      <point x="1018" y="1319"/>
      <point x="1154" y="1230"/>
      <point x="1159" y="1227" type="curve"/>
      <point x="1242" y="1491" type="line"/>
      <point x="1186.6" y="1529.09"/>
      <point x="1066.82" y="1600.09"/>
      <point x="873" y="1599" type="curve"/>
      <point x="873" y="1599"/>
      <point x="302.0" y="1383.0"/>
      <point x="227" y="1044" type="curve"/>
      <point x="49" y="1044" type="line"/>
      <point x="49" y="855" type="line"/>
      <point x="200" y="855" type="line"/>
      <point x="198" y="830"/>
      <point x="196" y="793"/>
      <point x="195" y="743" type="curve"/>
      <point x="67" y="743" type="line"/>
      <point x="67" y="554" type="line"/>
      <point x="200" y="554" type="line"/>
      <point x="230" y="136"/>
      <point x="461" y="-37"/>
    </contour>
  </outline>
</glyph>
<glyph name="greaterequal" format="1">
  <advance width="1136"/>
  <unicode hex="2265"/>
  <outline>
    <contour>
      <point x="150.6" y="298" type="line"/>
      <point x="991.6" y="703" type="line"/>
      <point x="991.6" y="939" type="line"/>
      <point x="151.6" y="1390" type="line"/>
      <point x="151.6" y="1089" type="line"/>
      <point x="736.6" y="821" type="line"/>
      <point x="150.6" y="599" type="line"/>
    </contour>
    <contour>
      <point x="148" y="0" type="line"/>
      <point x="991.6" y="0" type="line"/>
      <point x="991.6" y="212" type="line"/>
      <point x="148" y="212" type="line"/>
    </contour>
  </outline>
</glyph>
<glyph name="uniFB02" format="1">
  <advance width="1504"/>
  <unicode hex="FB02"/>
  <outline>
    <contour>
      <point x="213" y="0" type="line"/>
      <point x="563" y="0" type="line"/>
      <point x="563" y="1004" type="line"/>
      <point x="844" y="1004" type="line"/>
      <point x="844" y="1164" type="line"/>
      <point x="564" y="1164" type="line"/>
      <point x="564" y="1373"/>
      <point x="648" y="1413"/>
      <point x="777" y="1413" type="curve" smooth="yes"/>
      <point x="844.263" y="1413"/>
      <point x="923.842" y="1402"/>
      <point x="1011" y="1399" type="curve"/>
      <point x="1011" y="0" type="line"/>
      <point x="1362" y="0" type="line"/>
      <point x="1362" y="1638" type="line"/>
      <point x="1167.5" y="1650"/>
      <point x="972.998" y="1673"/>
      <point x="800" y="1673" type="curve" smooth="yes"/>
      <point x="465" y="1673"/>
      <point x="213" y="1586"/>
      <point x="213" y="1164" type="curve"/>
      <point x="23" y="1164" type="line"/>
      <point x="23" y="1004" type="line"/>
      <point x="213" y="1004" type="line"/>
    </contour>
  </outline>
</glyph>
<glyph name="ffi" format="1">
  <advance width="2320"/>
  <outline>
    <contour>
      <point x="213" y="0" type="line"/>
      <point x="563" y="0" type="line"/>
      <point x="563" y="1004" type="line"/>
      <point x="1008" y="1004" type="line"/>
      <point x="1008" y="0" type="line"/>
      <point x="1358" y="0" type="line"/>
      <point x="1358" y="1004" type="line"/>
      <point x="1802" y="1004" type="line"/>
      <point x="1802" y="0" type="line"/>
      <point x="2153" y="0" type="line"/>
      <point x="2153" y="1164" type="line"/>
      <point x="1359" y="1164" type="line"/>
      <point x="1359" y="1346"/>
      <point x="1405" y="1403"/>
      <point x="1496" y="1403" type="curve" smooth="yes"/>
      <point x="1551" y="1403"/>
      <point x="1600" y="1395"/>
      <point x="1645" y="1378" type="curve"/>
      <point x="1645" y="1633" type="line"/>
      <point x="1568" y="1651"/>
      <point x="1492" y="1662"/>
      <point x="1416" y="1662" type="curve" smooth="yes"/>
      <point x="1139" y="1662"/>
      <point x="1008" y="1489"/>
      <point x="1008" y="1164" type="curve"/>
      <point x="564" y="1164" type="line"/>
      <point x="564" y="1346"/>
      <point x="610" y="1403"/>
      <point x="701" y="1403" type="curve" smooth="yes"/>
      <point x="756" y="1403"/>
      <point x="805" y="1395"/>
      <point x="850" y="1378" type="curve"/>
      <point x="850" y="1633" type="line"/>
      <point x="773" y="1651"/>
      <point x="697" y="1662"/>
      <point x="621" y="1662" type="curve" smooth="yes"/>
      <point x="344" y="1662"/>
      <point x="213" y="1489"/>
      <point x="213" y="1164" type="curve"/>
      <point x="23" y="1164" type="line"/>
      <point x="23" y="1004" type="line"/>
      <point x="213" y="1004" type="line"/>
    </contour>
    <contour>
      <point x="1978" y="1338" type="curve" smooth="yes"/>
      <point x="2087" y="1338"/>
      <point x="2174" y="1422"/>
      <point x="2174" y="1532" type="curve" smooth="yes"/>
      <point x="2174" y="1641"/>
      <point x="2086" y="1726"/>
      <point x="1978" y="1726" type="curve" smooth="yes"/>
      <point x="1869" y="1726"/>
      <point x="1785" y="1641"/>
      <point x="1785" y="1532" type="curve" smooth="yes"/>
      <point x="1785" y="1426"/>
      <point x="1866" y="1338"/>
    </contour>
  </outline>
</glyph>
